# xmcd
#
# Track frame offsets:
#	150
#	13110
#	25731
#	39169
#	57775
#	70097
#	83065
#	100293
#	115223
#	129903
#	144266
#	159819
#	174572
#	188259
#
# Disc length: 2777 seconds
# Revision: 0
# Processed by: cddbd v1.5.2PL0 Copyright (c) Steve Scherf et al.
# Submitted via: dBpowerAMP V12.0
#
DISCID=9d0ad70e
DTITLE=David Davis and The Warrior River Boys - Didn't He Ramble - Songs Of Charlie Poole
DYEAR=2018
DGENRE=Bluegrass
TTITLE0=He Rambled
TTITLE1=One Moonlight Night
TTITLE2=Ramblin' Blues
TTITLE3=May I Sleep in Your Barn Tonight, Mister?
TTITLE4=Girl I Left in Sunny Tennessee
TTITLE5=The Highwayman
TTITLE6=Leaving Home
TTITLE7=Goodbye Mary Dear
TTITLE8=Milwaukee Blues
TTITLE9=Old and Only in the Way
TTITLE10=White House Blues
TTITLE11=If the River Was Whiskey
TTITLE12=Where the Whippoorwill is Whispering Goodnight
TTITLE13=Sweet Sunny South
EXTD=
EXTT0=
EXTT1=
EXTT2=
EXTT3=
EXTT4=
EXTT5=
EXTT6=
EXTT7=
EXTT8=
EXTT9=
EXTT10=
EXTT11=
EXTT12=
EXTT13=
PLAYORDER=
